<svg width="43.000000" height="39.000000" viewBox="0 0 43 39" fill="none" xmlns="http://www.w3.org/2000/svg" xmlns:xlink="http://www.w3.org/1999/xlink">
	<desc>
			Created with Pixso.
	</desc>
	<defs/>
	<path id="Vector" d="M7 32.75C3.55 31.86 1 28.73 1 25L1 9C1 4.58 4.58 1 9 1L17 1C21.41 1 25 4.58 25 9L25 33M25 9L31.41 9C32.43 9 33.41 9.38 34.15 10.08L39.73 15.31C40.54 16.07 41 17.12 41 18.23L41 29C41 31.2 39.2 33 37 33M11 37C8.79 37 7 35.2 7 33C7 32.91 7 32.83 7 32.75C7.13 30.65 8.87 29 11 29C13.2 29 15 30.79 15 33C15 35.2 13.2 37 11 37ZM33 37C30.79 37 29 35.2 29 33C29 30.79 30.79 29 33 29C35.2 29 37 30.79 37 33C37 35.2 35.2 37 33 37ZM15 33L25 33L29 33" stroke="#141718" stroke-opacity="1.000000" stroke-width="2.500000"/>
</svg>
