<svg width="39.000000" height="39.000000" viewBox="0 0 39 39" fill="none" xmlns="http://www.w3.org/2000/svg" xmlns:xlink="http://www.w3.org/1999/xlink">
	<desc>
			Created with Pixso.
	</desc>
	<defs/>
	<path id="Rectangle 77" d="M37 33C37 35.2 35.2 37 33 37C15.32 37 1 22.67 1 5C1 2.79 2.79 1 5 1L8.29 1C9.92 1 11.39 1.99 12 3.51L13.63 7.58C14.4 9.51 13.56 11.71 11.7 12.64L11 13C11 13 12 18 16 22C20 26 25 27 25 27L25.35 26.29C26.28 24.43 28.48 23.59 30.41 24.36L34.48 25.99C36 26.6 37 28.07 37 29.7L37 33Z" stroke="#141718" stroke-opacity="1.000000" stroke-width="2.500000" stroke-linejoin="round"/>
</svg>
