<svg width="13.000000" height="13.000000" viewBox="0 0 13 13" fill="none" xmlns="http://www.w3.org/2000/svg" xmlns:xlink="http://www.w3.org/1999/xlink">
	<desc>
			Created with Pixso.
	</desc>
	<defs/>
	<path id="Rating/Star Fill" d="M5.53 0.1L4 3.8C3.92 3.97 3.76 4.09 3.57 4.11L-0.42 4.43C-0.86 4.46 -1.04 5.02 -0.7 5.3L2.34 7.91C2.48 8.03 2.54 8.22 2.5 8.4L1.57 12.3C1.47 12.73 1.94 13.07 2.32 12.84L5.73 10.75C5.89 10.66 6.1 10.66 6.26 10.75L9.67 12.84C10.05 13.07 10.52 12.73 10.42 12.3L9.49 8.4C9.45 8.22 9.51 8.03 9.65 7.91L12.69 5.3C13.03 5.02 12.85 4.46 12.41 4.43L8.42 4.11C8.23 4.09 8.07 3.97 7.99 3.8L6.46 0.1C6.29 -0.31 5.7 -0.31 5.53 0.1Z" fill="#343839" fill-opacity="1.000000" fill-rule="evenodd"/>
</svg>
