<svg width="21.000000" height="19.000000" viewBox="0 0 21 19" fill="none" xmlns="http://www.w3.org/2000/svg" xmlns:xlink="http://www.w3.org/1999/xlink">
	<desc>
			Created with Pixso.
	</desc>
	<defs/>
	<path id="Vector" d="M0 14L0 13C0 12.44 0.45 12.01 0.98 11.83C2.15 11.42 3 10.31 3 9C3 7.68 2.15 6.57 0.98 6.16C0.45 5.98 0 5.55 0 5L0 4C0 1.79 1.79 0 4 0L16 0C18.2 0 20 1.79 20 4L20 5C20 5.55 19.54 5.98 19.01 6.16C17.84 6.57 17 7.68 17 9C17 10.31 17.84 11.42 19.01 11.83C19.54 12.01 20 12.44 20 13L20 14C20 16.2 18.2 18 16 18L4 18C1.79 18 0 16.2 0 14ZM7 7C6.44 7 6 6.55 6 6C6 5.44 6.44 5 7 5C7.55 5 8 5.44 8 6C8 6.55 7.55 7 7 7ZM13 13C12.44 13 12 12.55 12 12C12 11.44 12.44 11 13 11C13.55 11 14 11.44 14 12C14 12.55 13.55 13 13 13ZM13 6L7 12" stroke="#FEFEFE" stroke-opacity="1.000000" stroke-width="1.500000" stroke-linecap="round"/>
</svg>
